<svg width="119" height="209" viewBox="0 0 119 209" fill="none" xmlns="http://www.w3.org/2000/svg">
<path d="M2.00127 180.362L2.15556 208H10.8222M2.00127 180.362L1.9852 177.483M2.00127 180.362H10.8222M118 180.362V208H109.333M118 180.362V177.483M118 180.362H109.333M118 177.483V1H1L1.9852 177.483M118 177.483H1.9852M10.8222 180.362V208M10.8222 180.362H109.333M10.8222 208H109.333M109.333 180.362V208M22.06 154.305H99.28M22.06 145.744H65.74M22.06 135.628H99.28M10.8222 8.1975H109.333V169.134H10.8222V8.1975Z" stroke="white" stroke-width="2"/>
</svg>
