<svg width="201" height="228" viewBox="0 0 201 228" fill="none" xmlns="http://www.w3.org/2000/svg">
<path d="M147.376 1L198.773 160.78H173.831H140.574L131.702 130.256H108.45L100.136 160.78H71.0362H34L85.3972 1H121.954H147.376Z" fill="#121010"/>
<path d="M71.0362 160.78H34L85.3972 1H121.954M71.0362 160.78L80.1027 130.256H108.45M71.0362 160.78H100.136L108.45 130.256M108.45 130.256H131.702L140.574 160.78H173.831M173.831 160.78H198.773L147.376 1H121.954M173.831 160.78L121.954 1M106.183 42.4524L90.0647 96.7175H121.954L106.183 42.4524Z" stroke="white" stroke-width="2"/>
<path d="M11.3727 227H23.7209L25.2086 223.727V169.871H30.1181V150.828H2V169.871H17.3236V214.652L11.3727 227Z" fill="#161313"/>
<path d="M8.39724 130.893C3.39847 135.058 2.04959 143.737 2 147.555H29.9693C30.0189 146.663 30.3264 144.49 31.1595 142.943H27.1426C25.4565 143.042 21.7974 142.017 23.1258 137.736C24.4647 133.422 25.0598 131.785 25.3574 130.893H8.39724Z" fill="#161313"/>
<path d="M11.3727 227H23.7209L25.2086 223.727V169.871H30.1181V150.828H2V169.871H17.3236V214.652L11.3727 227Z" stroke="white" stroke-width="2"/>
<path d="M8.39724 130.893C3.39847 135.058 2.04959 143.737 2 147.555H29.9693C30.0189 146.663 30.3264 144.49 31.1595 142.943H27.1426C25.4565 143.042 21.7974 142.017 23.1258 137.736C24.4647 133.422 25.0598 131.785 25.3574 130.893H8.39724Z" stroke="white" stroke-width="2"/>
<path d="M119.084 130.893C124.083 135.058 125.432 143.737 125.482 147.555H97.5122C97.4627 146.663 97.1552 144.49 96.3221 142.943H100.339C102.025 143.042 105.684 142.017 104.356 137.736C103.017 133.422 102.422 131.785 102.124 130.893H119.084Z" fill="#161313" stroke="white" stroke-width="2"/>
<path d="M27.2913 140.117H51.9876L53.4754 133.422H63.8895H73.8573L75.345 140.117H100.041C100.488 140.117 101.29 140.149 101.529 139.67C101.827 139.075 101.529 138.48 101.38 138.034L98.5536 130H63.8895H28.779L25.9524 138.034C25.8036 138.48 25.506 139.075 25.8036 139.67C26.0428 140.149 26.845 140.117 27.2913 140.117Z" fill="#161313" stroke="white" stroke-width="2"/>
<path d="M116.109 227H103.761L102.273 223.727V169.871H97.6191L97.3635 150.828H125.482V169.871H110.158V214.652L116.109 227Z" fill="#161313" stroke="white" stroke-width="2"/>
<path d="M34.2837 142.943C33.6887 144.133 33.1432 146.414 32.9448 147.406C32.1513 147.803 30.1181 149.63 30.1181 153.113V169.871C30.4156 177.31 30.8322 193.05 30.1181 196.501C29.404 199.953 28.0353 201.907 27.4402 202.452H62.2531H65.3773H100.19C99.5951 201.907 98.2264 199.953 97.5123 196.501C96.7982 193.05 97.2147 177.31 97.5123 169.871V160.721V153.113C97.5123 149.63 95.479 147.803 94.6856 147.406C94.4872 146.414 93.9417 144.133 93.3466 142.943H65.3773H62.2531H34.2837Z" fill="#161313"/>
<path d="M65.3773 202.452H27.4402C28.0353 201.907 29.404 199.953 30.1181 196.501C30.8322 193.05 30.4156 177.31 30.1181 169.871C30.1181 169.871 30.1181 156.596 30.1181 153.113C30.1181 149.63 32.1513 147.803 32.9448 147.406C33.1432 146.414 33.6887 144.133 34.2837 142.943H65.3773M62.2531 202.452H100.19C99.5951 201.907 98.2264 199.953 97.5123 196.501C96.7982 193.05 97.2147 177.31 97.5123 169.871V160.721V153.113C97.5123 149.63 95.479 147.803 94.6856 147.406C94.4872 146.414 93.9417 144.133 93.3466 142.943H62.2531" stroke="white" stroke-width="2"/>
</svg>
